<?xml version="1.0" standalone="no"?>
<!DOCTYPE svg PUBLIC "-//W3C//DTD SVG 20010904//EN"
 "http://www.w3.org/TR/2001/REC-SVG-20010904/DTD/svg10.dtd">
<svg version="1.0" xmlns="http://www.w3.org/2000/svg"
 width="500.000000pt" height="500.000000pt" viewBox="0 0 500.000000 500.000000"
 preserveAspectRatio="xMidYMid meet">
<metadata>
Created by potrace 1.14, written by Peter Selinger 2001-2017
</metadata>
<g transform="translate(0.000000,500.000000) scale(0.100000,-0.100000)"
fill="#000000" stroke="none">
<path d="M3685 4577 c-174 -177 -284 -304 -392 -452 -49 -68 -136 -200 -158
-240 -74 -134 -100 -185 -138 -275 -74 -175 -128 -369 -145 -525 -9 -81 -8
-304 1 -387 39 -354 226 -745 485 -1011 l56 -58 24 38 c86 139 162 330 227
568 24 87 77 336 89 420 4 22 11 65 16 95 10 58 15 99 25 190 4 30 8 66 10 80
2 14 7 54 10 90 4 36 8 76 10 90 1 14 6 77 10 140 4 63 9 129 10 145 2 17 3
63 4 104 0 41 3 72 6 69 8 -7 53 -162 59 -204 4 -20 8 -39 11 -43 5 -9 33
-218 40 -306 6 -77 7 -439 1 -495 -2 -19 -7 -71 -11 -115 -11 -143 -26 -267
-40 -345 -3 -14 -7 -43 -11 -65 -3 -22 -7 -51 -10 -65 -16 -99 -27 -157 -45
-240 -11 -52 -22 -102 -24 -111 -2 -9 -8 -34 -14 -55 -19 -67 -13 -67 52 -2
213 213 363 420 477 653 79 163 111 250 144 395 35 152 37 167 41 370 4 173
-1 235 -30 404 -4 21 -20 86 -36 143 -97 344 -285 694 -534 992 -116 138 -93
138 -220 8z"/>
<path d="M1065 3259 c3 -112 7 -220 9 -239 8 -84 18 -166 22 -185 2 -11 6 -37
9 -57 3 -20 16 -85 30 -145 146 -624 511 -1041 1050 -1202 136 -40 243 -59
386 -66 l101 -6 -7 33 c-45 212 -202 512 -436 836 -77 105 -279 364 -298 382
-4 3 -37 41 -76 85 -38 44 -72 82 -75 85 -3 3 -21 23 -40 44 l-35 39 84 -44
c83 -44 265 -174 343 -246 200 -184 360 -364 541 -610 53 -72 133 -187 176
-255 118 -183 107 -177 105 -60 -6 327 -55 570 -162 807 -46 102 -124 236
-159 273 -7 7 -13 16 -13 20 -1 24 -199 222 -290 291 -101 76 -284 191 -304
191 -2 0 -37 15 -78 34 -147 67 -389 139 -563 166 -38 6 -81 13 -95 15 -14 3
-71 8 -127 11 l-103 7 5 -204z"/>
<path d="M1449 1474 c-211 -31 -437 -118 -650 -250 -92 -57 -249 -175 -286
-216 l-23 -24 59 -60 c198 -201 378 -339 581 -447 318 -169 662 -209 970 -111
106 33 315 133 340 163 3 3 23 18 45 33 22 15 67 53 100 83 l60 56 -55 31
c-124 71 -343 146 -530 182 -14 3 -47 9 -75 15 -44 8 -69 12 -160 26 -11 2
-42 6 -70 9 -27 3 -66 8 -85 11 -72 10 -254 25 -355 30 -44 2 -84 5 -90 5 -18
2 39 21 120 40 71 16 113 23 220 36 53 6 359 7 410 1 28 -4 84 -9 125 -12 41
-4 82 -8 90 -10 8 -2 38 -7 65 -10 28 -3 88 -12 135 -21 47 -8 99 -18 115 -20
17 -3 64 -14 105 -24 41 -11 76 -17 78 -15 4 4 -48 56 -134 135 -199 183 -459
313 -719 361 -87 16 -286 18 -386 3z"/>
<path d="M3248 1430 c-179 -55 -292 -197 -303 -383 -15 -241 181 -441 425
-436 186 4 332 113 393 294 12 32 15 74 13 138 -2 78 -7 102 -33 158 -50 108
-153 199 -263 230 -69 19 -168 19 -232 -1z"/>
</g>
</svg>
