<?xml version="1.0" encoding="UTF-8" standalone="no"?><!DOCTYPE svg PUBLIC "-//W3C//DTD SVG 1.1//EN" "http://www.w3.org/Graphics/SVG/1.1/DTD/svg11.dtd"><svg width="100%" height="100%" viewBox="0 0 336 176" version="1.1" xmlns="http://www.w3.org/2000/svg" xmlns:xlink="http://www.w3.org/1999/xlink" xml:space="preserve" xmlns:serif="http://www.serif.com/" style="fill-rule:evenodd;clip-rule:evenodd;stroke-linecap:round;stroke-linejoin:round;stroke-miterlimit:1.5;"><rect id="background" x="0" y="0" width="336" height="175.2" style="fill:#063b80;"/><clipPath id="_clip1"><rect x="0" y="0" width="336" height="175.2"/></clipPath><g clip-path="url(#_clip1)"><g><clipPath id="_clip2"><rect x="0" y="-0" width="336" height="175.27"/></clipPath><g clip-path="url(#_clip2)"><path id="Leafs-6" serif:id="Leafs 6" d="M274.88,64.611c0.293,0.138 1.277,-0.187 1.935,-0.639c1.274,-0.876 2.206,-2.467 2.616,-4.47c0.281,-1.374 0.337,-2.007 0.295,-3.358c-0.034,-1.076 -0.109,-1.848 -0.205,-2.079c-0.065,-0.158 -0.215,-0.257 -0.339,-0.225c-0.114,0.03 -1.348,0.636 -1.694,0.831c-0.443,0.25 -0.999,0.642 -1.385,0.974c-1.342,1.154 -2.437,2.887 -2.825,4.472c-0.187,0.762 -0.206,0.97 -0.193,2.011c0.011,0.854 0.021,0.993 0.092,1.312c0.044,0.197 0.108,0.396 0.142,0.442c0.084,0.112 0.243,0.127 0.328,0.031c0.062,-0.07 0.062,-0.078 -0.006,-0.385c-0.059,-0.264 -0.072,-0.455 -0.081,-1.217c-0.012,-1.022 0.019,-1.363 0.181,-2.036c0.128,-0.528 0.27,-0.922 0.508,-1.412c0.742,-1.524 1.922,-2.84 3.273,-3.649c0.551,-0.331 1.556,-0.815 1.584,-0.763c0.054,0.095 0.125,1.195 0.137,2.086c0.013,1.036 -0.012,1.336 -0.191,2.355c-0.333,1.884 -0.886,3.119 -1.843,4.113c-0.489,0.509 -1.176,0.923 -1.813,1.095l-0.23,0.062l-0.002,-0.176c-0.005,-0.382 0.089,-1.513 0.149,-1.806c0.137,-0.668 0.477,-1.572 1.008,-2.683c0.318,-0.663 0.68,-1.246 1.08,-1.735c0.15,-0.182 0.286,-0.37 0.303,-0.416c0.065,-0.178 -0.14,-0.352 -0.318,-0.269c-0.106,0.05 -0.572,0.624 -0.859,1.058c-0.526,0.797 -1.207,2.283 -1.53,3.334c-0.182,0.597 -0.252,1.04 -0.298,1.903c-0.049,0.92 -0.017,1.145 0.181,1.239Zm0.659,-2.483c-0.1,0.068 -0.128,0.167 -0.075,0.265c0.028,0.055 0.133,0.105 0.381,0.184c0.188,0.06 0.45,0.155 0.582,0.211c0.285,0.121 0.322,0.123 0.438,0.03c0.205,-0.165 0.066,-0.321 -0.461,-0.517c-0.546,-0.201 -0.758,-0.244 -0.865,-0.173Zm-1.59,-0.425c-0.313,-0.039 -0.404,0.354 -0.097,0.418c0.056,0.012 0.189,0.056 0.297,0.1c0.187,0.075 0.283,0.076 0.372,0.003c0.05,-0.041 0.054,-0.177 0.007,-0.262c-0.04,-0.073 -0.409,-0.238 -0.579,-0.259Zm3.424,-0.081c0.067,-0.001 0.189,-0.09 0.213,-0.156c0.071,-0.194 -0.121,-0.344 -0.636,-0.497c-0.376,-0.112 -0.662,-0.137 -0.815,-0.071c-0.146,0.063 -0.188,0.188 -0.105,0.312c0.048,0.07 0.084,0.084 0.221,0.082c0.218,-0.002 0.618,0.099 0.893,0.227c0.122,0.056 0.225,0.103 0.229,0.103Zm-2.592,-1.206c-0.048,-0.018 -0.201,-0.052 -0.341,-0.076c-0.198,-0.032 -0.275,-0.033 -0.338,-0.001c-0.121,0.06 -0.158,0.139 -0.118,0.252c0.032,0.086 0.068,0.103 0.376,0.18c0.187,0.048 0.389,0.088 0.447,0.089c0.268,0.009 0.247,-0.342 -0.026,-0.444Zm3.265,-0.099c0.197,0.001 0.274,-0.243 0.122,-0.391c-0.09,-0.088 -0.684,-0.284 -1.054,-0.347c-0.206,-0.035 -0.242,-0.033 -0.358,0.025c-0.109,0.055 -0.129,0.084 -0.137,0.187c-0.011,0.161 0.046,0.203 0.291,0.215c0.222,0.01 0.736,0.146 0.929,0.246c0.068,0.035 0.162,0.064 0.207,0.065Zm-3.702,-1.146c-0.051,0.15 0.045,0.253 0.274,0.298c0.105,0.021 0.271,0.065 0.368,0.099c0.233,0.08 0.35,0.078 0.431,-0.005c0.146,-0.15 0.044,-0.313 -0.254,-0.408c-0.521,-0.166 -0.76,-0.161 -0.819,0.016Zm3.038,-0.844c-0.079,0.073 -0.094,0.255 -0.027,0.321c0.022,0.022 0.12,0.04 0.215,0.039c0.208,-0.003 0.512,0.078 0.627,0.167c0.107,0.082 0.227,0.079 0.311,-0.007c0.173,-0.178 0.01,-0.395 -0.384,-0.512c-0.324,-0.096 -0.643,-0.1 -0.742,-0.008Zm-1.374,-0.067c0.058,-0 0.21,-0.156 0.209,-0.215c-0.002,-0.141 -0.255,-0.307 -0.63,-0.411c-0.178,-0.05 -0.204,-0.05 -0.277,-0.001c-0.178,0.12 -0.12,0.323 0.114,0.397c0.071,0.023 0.221,0.084 0.334,0.136l0,0c0.113,0.052 0.226,0.094 0.25,0.094Zm2.781,-1.016c-0.01,-0.102 -0.032,-0.132 -0.132,-0.179c-0.066,-0.031 -0.212,-0.065 -0.325,-0.076c-0.172,-0.017 -0.217,-0.01 -0.285,0.046c-0.09,0.074 -0.104,0.228 -0.028,0.303c0.027,0.026 0.155,0.068 0.286,0.092c0.373,0.071 0.503,0.02 0.484,-0.186Zm-1.86,-0.162c0.128,-0.101 0.071,-0.286 -0.142,-0.459c-0.09,-0.073 -0.199,-0.151 -0.242,-0.173c-0.1,-0.052 -0.269,-0.014 -0.312,0.069c-0.07,0.134 -0.034,0.197 0.231,0.403c0.263,0.206 0.363,0.24 0.465,0.16Z" style="fill:#fff;"/><path id="Leafs-3" serif:id="Leafs 3" d="M24.852,137.699c0.1,-0.07 0.179,-0.452 0.156,-0.751c-0.046,-0.58 -0.389,-1.183 -0.964,-1.693c-0.395,-0.35 -0.591,-0.487 -1.039,-0.727c-0.357,-0.192 -0.623,-0.313 -0.716,-0.325c-0.063,-0.009 -0.124,0.022 -0.137,0.068c-0.011,0.043 -0.046,0.559 -0.048,0.709c-0.001,0.191 0.021,0.446 0.057,0.634c0.124,0.654 0.482,1.337 0.926,1.761c0.213,0.204 0.277,0.25 0.619,0.442c0.28,0.157 0.327,0.18 0.444,0.216c0.073,0.023 0.15,0.04 0.171,0.037c0.052,-0.006 0.087,-0.055 0.072,-0.101c-0.011,-0.033 -0.014,-0.035 -0.127,-0.07c-0.097,-0.031 -0.161,-0.062 -0.411,-0.203c-0.336,-0.188 -0.441,-0.262 -0.63,-0.442c-0.148,-0.141 -0.249,-0.261 -0.364,-0.431c-0.357,-0.528 -0.564,-1.16 -0.574,-1.753c-0.004,-0.241 0.028,-0.66 0.05,-0.659c0.041,0 0.413,0.184 0.705,0.348c0.34,0.19 0.433,0.255 0.732,0.505c0.551,0.463 0.849,0.875 0.993,1.374c0.074,0.255 0.08,0.557 0.016,0.797l-0.023,0.086l-0.058,-0.032c-0.125,-0.071 -0.476,-0.314 -0.561,-0.389c-0.191,-0.17 -0.422,-0.451 -0.684,-0.833c-0.156,-0.228 -0.278,-0.456 -0.362,-0.678c-0.031,-0.083 -0.067,-0.163 -0.078,-0.177c-0.046,-0.054 -0.142,-0.02 -0.148,0.053c-0.004,0.044 0.096,0.304 0.183,0.479c0.161,0.321 0.517,0.823 0.798,1.125c0.161,0.172 0.292,0.278 0.564,0.456c0.291,0.189 0.37,0.221 0.438,0.174Zm-1.123,-0.244c-0.071,0.095 0.04,0.198 0.119,0.111c0.014,-0.017 0.054,-0.052 0.088,-0.079c0.06,-0.047 0.078,-0.078 0.071,-0.12c-0.004,-0.024 -0.047,-0.051 -0.084,-0.052c-0.031,-0.001 -0.155,0.089 -0.194,0.14Zm-0.262,-0.513c-0.015,0.012 -0.055,0.056 -0.089,0.097c-0.048,0.058 -0.063,0.083 -0.064,0.11c-0.003,0.05 0.016,0.077 0.06,0.085c0.034,0.006 0.046,-0.002 0.129,-0.088c0.051,-0.052 0.102,-0.11 0.113,-0.129c0.054,-0.086 -0.065,-0.145 -0.149,-0.075Zm0.7,0.075c0.004,0.045 0.03,0.073 0.072,0.074c0.024,0.001 0.06,-0.023 0.132,-0.089c0.055,-0.05 0.135,-0.118 0.178,-0.15c0.093,-0.07 0.101,-0.082 0.093,-0.137c-0.016,-0.098 -0.093,-0.082 -0.256,0.053c-0.168,0.14 -0.222,0.201 -0.219,0.249Zm-1.188,-0.167c0.039,0.045 0.091,0.033 0.149,-0.033c0.026,-0.03 0.072,-0.076 0.101,-0.101c0.07,-0.061 0.091,-0.1 0.08,-0.142c-0.022,-0.075 -0.094,-0.073 -0.181,0.006c-0.152,0.139 -0.195,0.218 -0.149,0.27Zm1.368,-0.526c0.012,-0.022 0.006,-0.078 -0.01,-0.098c-0.05,-0.06 -0.135,-0.026 -0.282,0.113c-0.107,0.102 -0.169,0.19 -0.176,0.252c-0.007,0.06 0.025,0.097 0.081,0.093c0.032,-0.002 0.044,-0.011 0.069,-0.056c0.04,-0.072 0.148,-0.183 0.241,-0.248c0.042,-0.03 0.076,-0.054 0.077,-0.056Zm-1.352,-0.187c0.011,-0.019 -0.011,-0.098 -0.03,-0.109c-0.047,-0.026 -0.148,0.026 -0.253,0.128c-0.05,0.049 -0.054,0.057 -0.052,0.09c0.005,0.081 0.082,0.1 0.15,0.038c0.021,-0.019 0.069,-0.057 0.108,-0.084l-0,0c0.038,-0.027 0.073,-0.055 0.077,-0.063Zm1.054,-0.278c0.037,-0.063 -0.028,-0.134 -0.105,-0.113c-0.045,0.013 -0.221,0.17 -0.311,0.278c-0.05,0.061 -0.056,0.073 -0.059,0.122c-0.003,0.045 0.003,0.058 0.035,0.08c0.05,0.033 0.075,0.023 0.125,-0.055c0.045,-0.07 0.186,-0.212 0.254,-0.256c0.025,-0.016 0.052,-0.041 0.061,-0.056Zm-0.773,-0.157c0.008,0.039 0.065,0.078 0.099,0.069c0.011,-0.003 0.035,-0.032 0.053,-0.063c0.038,-0.068 0.122,-0.152 0.172,-0.173c0.047,-0.019 0.069,-0.059 0.057,-0.102c-0.026,-0.09 -0.127,-0.078 -0.239,0.028c-0.093,0.088 -0.154,0.191 -0.142,0.241Zm-0.491,-0.087c-0.009,-0.061 -0.08,-0.077 -0.176,-0.04c-0.041,0.015 -0.087,0.036 -0.103,0.046c-0.035,0.023 -0.055,0.085 -0.036,0.115c0.031,0.048 0.058,0.048 0.175,0.001c0.116,-0.047 0.147,-0.074 0.14,-0.122Zm0.402,-0.575c-0.035,-0.016 -0.049,-0.015 -0.083,0.009c-0.022,0.016 -0.061,0.057 -0.086,0.091c-0.038,0.053 -0.044,0.069 -0.038,0.102c0.007,0.043 0.054,0.077 0.093,0.066c0.014,-0.004 0.051,-0.038 0.084,-0.076c0.093,-0.108 0.101,-0.16 0.03,-0.192Z" style="fill:#fbd000;"/><path id="Shape-8" serif:id="Shape 8" d="M133.271,58.494c-0.001,0.751 0.549,1.496 1.226,1.661c0.35,0.085 0.69,0.037 1.085,-0.154c0.414,-0.2 0.791,-0.718 0.841,-1.154c0.082,-0.735 -0.646,-1.302 -1.394,-1.085c-0.277,0.08 -0.423,0.194 -0.498,0.393c-0.119,0.311 0.009,0.816 0.23,0.908c0.232,0.096 0.422,-0.108 0.314,-0.335c-0.031,-0.066 -0.068,-0.177 -0.081,-0.246c-0.035,-0.186 0.08,-0.251 0.415,-0.232c0.238,0.014 0.26,0.022 0.373,0.147c0.108,0.117 0.12,0.153 0.12,0.337c-0.001,0.62 -0.737,1.091 -1.395,0.894c-0.198,-0.06 -0.468,-0.315 -0.585,-0.554c-0.194,-0.398 -0.149,-1.015 0.102,-1.41c0.124,-0.195 0.377,-0.43 0.57,-0.529c0.448,-0.23 1.372,-0.227 1.665,0.005c0.147,0.118 0.239,0.144 0.338,0.099c0.185,-0.085 0.157,-0.299 -0.06,-0.457c-0.553,-0.401 -1.626,-0.404 -2.305,-0.006c-0.547,0.32 -0.961,1.06 -0.961,1.718Z" style="fill:#fbd000;fill-rule:nonzero;"/><path id="Shape-2" serif:id="Shape 2" d="M80.85,148.301c0.365,0.657 1.207,1.042 1.879,0.857c0.347,-0.096 0.621,-0.303 0.873,-0.662c0.265,-0.375 0.343,-1.012 0.175,-1.417c-0.285,-0.682 -1.197,-0.825 -1.746,-0.272c-0.203,0.205 -0.275,0.375 -0.244,0.585c0.048,0.33 0.404,0.709 0.642,0.683c0.249,-0.029 0.317,-0.299 0.112,-0.446c-0.06,-0.042 -0.145,-0.121 -0.19,-0.175c-0.121,-0.146 -0.052,-0.258 0.25,-0.404c0.215,-0.104 0.238,-0.107 0.397,-0.054c0.152,0.051 0.18,0.076 0.269,0.237c0.3,0.542 -0.114,1.312 -0.786,1.459c-0.202,0.044 -0.562,-0.048 -0.78,-0.2c-0.362,-0.254 -0.623,-0.814 -0.596,-1.282c0.014,-0.231 0.121,-0.56 0.242,-0.739c0.28,-0.419 1.089,-0.865 1.458,-0.804c0.186,0.031 0.279,0.009 0.344,-0.078c0.12,-0.164 -0.009,-0.338 -0.276,-0.371c-0.677,-0.082 -1.617,0.437 -2.017,1.115c-0.323,0.545 -0.325,1.393 -0.006,1.968Z" style="fill:#fdfdfd;fill-rule:nonzero;"/><path id="Dot-8" serif:id="Dot 8" d="M307.456,82.246c-1.023,-0 -1.024,1.651 -0,1.651c1.022,0 1.024,-1.651 -0,-1.651Z" style="fill:#fbd000;fill-rule:nonzero;"/><path id="Dot-7" serif:id="Dot 7" d="M68.84,72.305c-0.687,0 -0.688,1.109 -0,1.109c0.686,0 0.688,-1.109 -0,-1.109Z" style="fill:#fdfdfd;fill-rule:nonzero;"/><path id="Dot-71" serif:id="Dot 7" d="M29.097,153.877c-0.686,0 -0.688,1.109 0,1.109c0.687,0 0.688,-1.109 0,-1.109Z" style="fill:#fdfdfd;fill-rule:nonzero;"/><path id="Dot-12" serif:id="Dot 12" d="M59.699,113.211c-0.358,0.958 1.188,1.537 1.547,0.578c0.358,-0.958 -1.188,-1.537 -1.547,-0.578Z" style="fill:#fbd000;fill-rule:nonzero;"/><path id="Dot-9" serif:id="Dot 9" d="M133.453,108.245c-0.358,0.957 1.188,1.537 1.547,0.578c0.358,-0.958 -1.189,-1.538 -1.547,-0.578Z" style="fill:#fff;fill-rule:nonzero;"/><path id="Dot-91" serif:id="Dot 9" d="M207.149,139.547c-0.358,0.957 1.188,1.537 1.547,0.578c0.358,-0.958 -1.189,-1.538 -1.547,-0.578Z" style="fill:#fff;fill-rule:nonzero;"/><path id="Shape-21" serif:id="Shape 2" d="M22.079,56.317c0.72,0.219 1.592,-0.092 1.946,-0.692c0.183,-0.31 0.235,-0.65 0.167,-1.083c-0.072,-0.454 -0.459,-0.965 -0.862,-1.139c-0.679,-0.292 -1.433,0.24 -1.442,1.02c-0.003,0.288 0.064,0.46 0.232,0.59c0.264,0.204 0.784,0.228 0.936,0.043c0.159,-0.194 0.019,-0.435 -0.23,-0.397c-0.072,0.01 -0.188,0.013 -0.258,0.005c-0.189,-0.02 -0.217,-0.148 -0.102,-0.463c0.082,-0.225 0.096,-0.243 0.248,-0.315c0.144,-0.07 0.181,-0.071 0.358,-0.018c0.593,0.181 0.83,1.022 0.451,1.595c-0.115,0.172 -0.437,0.357 -0.699,0.399c-0.437,0.07 -1.015,-0.151 -1.32,-0.506c-0.151,-0.175 -0.303,-0.486 -0.342,-0.698c-0.09,-0.496 0.181,-1.38 0.488,-1.592c0.155,-0.108 0.207,-0.188 0.192,-0.296c-0.027,-0.201 -0.241,-0.236 -0.455,-0.074c-0.544,0.412 -0.858,1.439 -0.673,2.204c0.148,0.616 0.736,1.227 1.365,1.417Z" style="fill:#fdfdfd;fill-rule:nonzero;"/><path id="Dot-121" serif:id="Dot 12" d="M13.461,13.844c0.41,0.937 1.923,0.277 1.513,-0.662c-0.41,-0.937 -1.923,-0.277 -1.513,0.662Z" style="fill:#fff;fill-rule:nonzero;"/><path id="Dot-122" serif:id="Dot 12" d="M66.742,32.676c0.409,0.937 1.923,0.277 1.513,-0.661c-0.41,-0.937 -1.924,-0.277 -1.513,0.661Z" style="fill:#fbd000;fill-rule:nonzero;"/><path id="Dot-92" serif:id="Dot 9" d="M42.786,14.817c0.409,0.937 1.923,0.277 1.513,-0.661c-0.41,-0.937 -1.923,-0.277 -1.513,0.661Z" style="fill:#fbd000;fill-rule:nonzero;"/><path id="Dot-72" serif:id="Dot 7" d="M194.243,101.289c-0.522,0.446 0.196,1.29 0.719,0.844c0.523,-0.445 -0.196,-1.29 -0.719,-0.844Z" style="fill:#fdfdfd;fill-rule:nonzero;"/><path id="Dot-6" serif:id="Dot 6" d="M313.852,18.468c-0.745,-0 -0.747,1.203 -0,1.203c0.745,0 0.746,-1.203 -0,-1.203Z" style="fill:#fdfdfd;fill-rule:nonzero;"/><path id="Leafs-61" serif:id="Leafs 6" d="M299.386,164.928c0.164,0.077 0.716,-0.105 1.085,-0.359c0.715,-0.491 1.238,-1.384 1.468,-2.507c0.157,-0.771 0.189,-1.125 0.165,-1.883c-0.019,-0.604 -0.061,-1.037 -0.115,-1.167c-0.036,-0.088 -0.121,-0.144 -0.19,-0.126c-0.064,0.017 -0.756,0.357 -0.95,0.467c-0.248,0.14 -0.56,0.359 -0.777,0.546c-0.753,0.647 -1.367,1.619 -1.585,2.508c-0.104,0.427 -0.115,0.544 -0.108,1.128c0.006,0.479 0.012,0.557 0.052,0.736c0.025,0.11 0.06,0.222 0.08,0.248c0.046,0.063 0.136,0.071 0.183,0.017c0.035,-0.039 0.035,-0.043 -0.003,-0.216c-0.033,-0.148 -0.04,-0.255 -0.045,-0.682c-0.007,-0.573 0.01,-0.765 0.101,-1.142c0.072,-0.297 0.151,-0.518 0.285,-0.792c0.416,-0.855 1.078,-1.593 1.836,-2.047c0.309,-0.186 0.873,-0.457 0.888,-0.428c0.03,0.053 0.071,0.67 0.077,1.17c0.008,0.581 -0.006,0.749 -0.107,1.321c-0.187,1.057 -0.497,1.75 -1.034,2.307c-0.274,0.285 -0.659,0.518 -1.017,0.614l-0.129,0.035l-0.001,-0.099c-0.002,-0.214 0.05,-0.849 0.084,-1.013c0.077,-0.375 0.267,-0.882 0.565,-1.505c0.178,-0.371 0.382,-0.699 0.606,-0.973c0.084,-0.102 0.16,-0.207 0.17,-0.233c0.036,-0.1 -0.079,-0.198 -0.178,-0.151c-0.06,0.028 -0.321,0.35 -0.482,0.594c-0.295,0.446 -0.678,1.28 -0.858,1.869c-0.103,0.335 -0.142,0.584 -0.168,1.068c-0.027,0.516 -0.009,0.642 0.102,0.695Zm0.37,-1.393c-0.056,0.038 -0.072,0.093 -0.042,0.149c0.015,0.031 0.074,0.058 0.213,0.103c0.106,0.034 0.253,0.087 0.326,0.118c0.161,0.068 0.182,0.069 0.247,0.017c0.114,-0.093 0.036,-0.18 -0.259,-0.29c-0.306,-0.113 -0.425,-0.137 -0.485,-0.097Zm-0.892,-0.238c-0.176,-0.022 -0.227,0.198 -0.055,0.234c0.032,0.007 0.106,0.032 0.167,0.056c0.105,0.042 0.159,0.043 0.209,0.002c0.028,-0.023 0.03,-0.099 0.004,-0.147c-0.023,-0.041 -0.23,-0.134 -0.325,-0.145Zm1.92,-0.046c0.038,-0 0.106,-0.05 0.12,-0.087c0.039,-0.109 -0.068,-0.193 -0.357,-0.279c-0.211,-0.063 -0.371,-0.077 -0.457,-0.04c-0.082,0.036 -0.106,0.106 -0.059,0.175c0.027,0.04 0.047,0.047 0.124,0.046c0.122,-0.001 0.347,0.056 0.501,0.127c0.068,0.032 0.126,0.058 0.128,0.058Zm-1.454,-0.676c-0.026,-0.01 -0.112,-0.029 -0.191,-0.043c-0.111,-0.018 -0.154,-0.018 -0.189,-0.001c-0.068,0.034 -0.089,0.079 -0.067,0.142c0.018,0.048 0.038,0.058 0.211,0.101c0.105,0.027 0.218,0.049 0.251,0.05c0.15,0.005 0.139,-0.192 -0.015,-0.249Zm1.832,-0.056c0.11,0.001 0.153,-0.136 0.068,-0.219c-0.05,-0.05 -0.384,-0.159 -0.591,-0.195c-0.115,-0.02 -0.136,-0.018 -0.201,0.014c-0.061,0.031 -0.072,0.047 -0.077,0.105c-0.006,0.09 0.026,0.114 0.164,0.121c0.124,0.006 0.412,0.082 0.52,0.138c0.039,0.019 0.092,0.036 0.117,0.036Zm-2.077,-0.642c-0.028,0.083 0.025,0.141 0.154,0.167c0.059,0.011 0.152,0.036 0.207,0.055c0.13,0.045 0.196,0.044 0.241,-0.003c0.082,-0.084 0.025,-0.175 -0.143,-0.229c-0.292,-0.092 -0.425,-0.09 -0.459,0.01Zm1.704,-0.474c-0.044,0.041 -0.053,0.143 -0.015,0.18c0.013,0.013 0.067,0.022 0.121,0.022c0.117,-0.001 0.287,0.044 0.351,0.093c0.06,0.047 0.128,0.045 0.175,-0.003c0.097,-0.1 0.005,-0.222 -0.216,-0.288c-0.181,-0.053 -0.36,-0.055 -0.416,-0.004Zm-0.77,-0.037c0.032,-0.001 0.117,-0.088 0.117,-0.121c-0.001,-0.079 -0.143,-0.172 -0.353,-0.23c-0.1,-0.029 -0.115,-0.028 -0.156,-0.001c-0.1,0.067 -0.067,0.181 0.064,0.223c0.04,0.012 0.124,0.046 0.188,0.076l-0,-0c0.063,0.029 0.126,0.053 0.14,0.053Zm1.559,-0.57c-0.005,-0.058 -0.018,-0.074 -0.073,-0.101c-0.037,-0.017 -0.119,-0.036 -0.183,-0.043c-0.096,-0.009 -0.122,-0.005 -0.159,0.026c-0.051,0.042 -0.059,0.128 -0.017,0.17c0.016,0.015 0.088,0.038 0.161,0.052c0.209,0.04 0.282,0.011 0.271,-0.104Zm-1.043,-0.091c0.072,-0.057 0.04,-0.161 -0.079,-0.258c-0.051,-0.041 -0.112,-0.084 -0.136,-0.097c-0.057,-0.029 -0.151,-0.008 -0.175,0.039c-0.04,0.075 -0.019,0.11 0.129,0.226c0.148,0.115 0.204,0.135 0.261,0.09Z" style="fill:#fff;"/><path id="Leafs-62" serif:id="Leafs 6" d="M128.503,155.776c0.128,0.298 1.081,0.705 1.874,0.802c1.534,0.186 3.286,-0.39 4.919,-1.621c1.12,-0.844 1.58,-1.281 2.442,-2.322c0.688,-0.829 1.142,-1.458 1.223,-1.694c0.056,-0.161 0.009,-0.335 -0.105,-0.393c-0.106,-0.053 -1.432,-0.416 -1.821,-0.498c-0.497,-0.105 -1.173,-0.18 -1.682,-0.186c-1.77,-0.023 -3.738,0.551 -5.077,1.483c-0.644,0.447 -0.797,0.59 -1.476,1.38c-0.557,0.647 -0.642,0.758 -0.799,1.045c-0.097,0.176 -0.181,0.368 -0.186,0.425c-0.012,0.14 0.098,0.256 0.225,0.24c0.093,-0.011 0.098,-0.017 0.25,-0.293c0.131,-0.237 0.247,-0.388 0.745,-0.966c0.667,-0.774 0.916,-1.009 1.483,-1.406c0.446,-0.312 0.813,-0.513 1.316,-0.722c1.564,-0.652 3.319,-0.858 4.868,-0.571c0.632,0.117 1.706,0.419 1.693,0.477c-0.023,0.106 -0.697,0.979 -1.279,1.654c-0.675,0.786 -0.892,0.994 -1.701,1.639c-1.496,1.193 -2.729,1.753 -4.104,1.865c-0.703,0.057 -1.492,-0.087 -2.083,-0.379l-0.214,-0.106l0.115,-0.133c0.249,-0.29 1.068,-1.076 1.307,-1.256c0.545,-0.41 1.398,-0.863 2.531,-1.344c0.677,-0.287 1.335,-0.484 1.958,-0.586c0.233,-0.038 0.459,-0.088 0.502,-0.111c0.167,-0.091 0.128,-0.358 -0.06,-0.413c-0.113,-0.033 -0.842,0.089 -1.344,0.225c-0.921,0.25 -2.416,0.913 -3.353,1.487c-0.532,0.327 -0.877,0.613 -1.484,1.23c-0.645,0.657 -0.769,0.847 -0.683,1.048Zm2.137,-1.425c-0.12,-0.015 -0.206,0.04 -0.232,0.149c-0.015,0.06 0.031,0.167 0.164,0.391c0.101,0.169 0.235,0.413 0.296,0.542c0.135,0.28 0.161,0.306 0.31,0.313c0.263,0.012 0.261,-0.198 -0.004,-0.693c-0.276,-0.512 -0.407,-0.684 -0.534,-0.702Zm-0.911,-1.371c-0.209,-0.236 -0.537,-0.001 -0.35,0.249c0.035,0.046 0.105,0.168 0.157,0.271c0.091,0.181 0.162,0.245 0.277,0.249c0.065,0.003 0.158,-0.097 0.179,-0.191c0.018,-0.082 -0.149,-0.45 -0.263,-0.578Zm2.621,2.205c0.05,0.043 0.201,0.057 0.262,0.024c0.182,-0.098 0.138,-0.337 -0.147,-0.793c-0.208,-0.333 -0.406,-0.541 -0.564,-0.593c-0.152,-0.049 -0.266,0.016 -0.285,0.165c-0.011,0.084 0.007,0.118 0.11,0.207c0.166,0.143 0.399,0.484 0.52,0.761c0.055,0.123 0.101,0.226 0.104,0.229Zm-1.145,-2.62c-0.024,-0.044 -0.117,-0.171 -0.206,-0.282c-0.127,-0.155 -0.185,-0.207 -0.252,-0.225c-0.131,-0.035 -0.211,0.001 -0.256,0.111c-0.033,0.086 -0.017,0.123 0.163,0.384c0.109,0.16 0.233,0.323 0.276,0.363c0.195,0.184 0.412,-0.093 0.275,-0.351Zm2.513,2.087c0.147,0.132 0.366,-0.001 0.35,-0.212c-0.009,-0.126 -0.325,-0.666 -0.56,-0.958c-0.131,-0.163 -0.16,-0.185 -0.285,-0.218c-0.118,-0.031 -0.153,-0.023 -0.227,0.05c-0.115,0.112 -0.1,0.182 0.076,0.354c0.159,0.154 0.455,0.596 0.534,0.798c0.028,0.072 0.079,0.156 0.112,0.186Zm-2.018,-3.309c-0.136,0.079 -0.133,0.219 0.008,0.405c0.066,0.085 0.161,0.228 0.212,0.318c0.121,0.214 0.21,0.29 0.326,0.281c0.208,-0.015 0.24,-0.206 0.079,-0.474c-0.281,-0.469 -0.463,-0.623 -0.625,-0.53Zm2.836,1.378c-0.107,0.002 -0.239,0.129 -0.232,0.222c0.002,0.032 0.064,0.11 0.136,0.172c0.157,0.136 0.332,0.398 0.36,0.54c0.025,0.133 0.117,0.21 0.237,0.201c0.247,-0.019 0.269,-0.29 0.051,-0.638c-0.179,-0.286 -0.416,-0.501 -0.552,-0.497Zm-0.985,-0.959c0.044,0.037 0.261,0.021 0.299,-0.023c0.092,-0.107 0.011,-0.399 -0.2,-0.725c-0.101,-0.156 -0.12,-0.173 -0.207,-0.184c-0.213,-0.028 -0.304,0.162 -0.178,0.372c0.039,0.064 0.111,0.21 0.161,0.323l-0,0.001c0.05,0.114 0.107,0.22 0.125,0.236Zm2.757,1.078c0.06,-0.083 0.063,-0.12 0.02,-0.221c-0.029,-0.067 -0.116,-0.19 -0.193,-0.273c-0.118,-0.127 -0.157,-0.151 -0.244,-0.154c-0.117,-0.003 -0.23,0.102 -0.222,0.208c0.003,0.038 0.072,0.154 0.154,0.26c0.232,0.299 0.363,0.348 0.485,0.18Zm-1.287,-1.352c0.163,0.009 0.243,-0.168 0.198,-0.438c-0.019,-0.115 -0.05,-0.245 -0.068,-0.29c-0.041,-0.106 -0.192,-0.189 -0.28,-0.155c-0.14,0.054 -0.155,0.125 -0.093,0.455c0.061,0.328 0.114,0.421 0.243,0.428Z" style="fill:#fbd000;"/><path id="Shape-6" serif:id="Shape 6" d="M272.961,128.388c-0,0.752 0.549,1.497 1.226,1.662c0.35,0.085 0.691,0.037 1.086,-0.154c0.413,-0.2 0.79,-0.719 0.84,-1.154c0.083,-0.735 -0.645,-1.302 -1.394,-1.085c-0.277,0.08 -0.422,0.194 -0.497,0.392c-0.119,0.312 0.009,0.817 0.23,0.909c0.231,0.096 0.422,-0.108 0.313,-0.335c-0.031,-0.066 -0.067,-0.177 -0.08,-0.246c-0.035,-0.187 0.079,-0.251 0.414,-0.232c0.238,0.014 0.26,0.022 0.373,0.146c0.109,0.118 0.121,0.154 0.121,0.338c-0.001,0.62 -0.737,1.091 -1.396,0.894c-0.198,-0.06 -0.468,-0.315 -0.584,-0.554c-0.194,-0.398 -0.15,-1.015 0.101,-1.41c0.124,-0.195 0.378,-0.43 0.57,-0.529c0.449,-0.23 1.373,-0.227 1.665,0.005c0.148,0.117 0.239,0.144 0.339,0.099c0.185,-0.085 0.156,-0.299 -0.061,-0.457c-0.552,-0.401 -1.626,-0.404 -2.305,-0.006c-0.547,0.32 -0.961,1.06 -0.961,1.717Z" style="fill:#fdfdfd;fill-rule:nonzero;"/><path id="Dot-14" serif:id="Dot 14" d="M240.748,154.156c-1.022,-0 -1.024,1.651 0,1.651c1.023,-0 1.024,-1.651 0,-1.651Z" style="fill:#fbd000;fill-rule:nonzero;"/><path id="Dot-81" serif:id="Dot 8" d="M328.839,116.082c-1.022,-0 -1.024,1.651 0,1.651c1.023,0 1.025,-1.651 0,-1.651Z" style="fill:#fbd000;fill-rule:nonzero;"/><g><path d="M326.09,33.91l-2.4,11.76l6.24,-1.92l5.28,4.08l1.68,-12c0,-0 -2.622,-0.082 -10.8,-1.92Z" style="fill:#9350f1;"/><path d="M309.695,29.373l-3.797,11.348l6.43,-1.186l4.741,4.758l3.112,-11.917c-0,-0 -2.594,-0.159 -10.486,-3.003Z" style="fill:#fcd000;"/><path d="M293.854,23.091l-4.857,10.936l6.514,-0.571l4.267,5.188l4.207,-11.33c-0,-0 -2.544,-0.643 -10.131,-4.223Z" style="fill:#ff4627;"/><path d="M278.817,15.327l-5.952,10.381l6.538,0.1l3.713,5.597l5.345,-10.838c0,-0 -2.464,-0.901 -9.644,-5.24Z" style="fill:#9350f1;"/><path d="M264.748,6.305l-7.212,9.726l6.495,0.76l3.127,5.944l6.415,-10.482c-0,0 -2.121,-0.905 -8.825,-5.948Z" style="fill:#fcd000;"/><path d="M252.197,-3.829l-9.168,8.897l6.413,1.278l2.643,6.175l7.692,-10.177c0,0 -1.301,-0.61 -7.58,-6.173Z" style="fill:#ff4627;"/><path d="M256.49,-0.709c0,-0 31.434,29.015 80.64,36.299" style="fill:none;stroke:#fff;stroke-width:1.03px;"/></g><g><path d="M9.84,33.91l2.4,11.76l-6.24,-1.92l-5.28,4.08l-1.68,-12c0,-0 2.622,-0.082 10.8,-1.92Z" style="fill:#9350f1;"/><path d="M26.235,29.373l3.797,11.348l-6.43,-1.186l-4.741,4.758l-3.111,-11.917c-0,-0 2.593,-0.159 10.485,-3.003Z" style="fill:#fcd000;"/><path d="M42.076,23.091l4.857,10.936l-6.514,-0.571l-4.267,5.188l-4.206,-11.33c-0,-0 2.543,-0.643 10.13,-4.223Z" style="fill:#ff4627;"/><path d="M57.113,15.327l5.952,10.381l-6.538,0.1l-3.713,5.597l-5.345,-10.838c-0,-0 2.464,-0.901 9.644,-5.24Z" style="fill:#9350f1;"/><path d="M71.182,6.305l7.212,9.726l-6.494,0.76l-3.128,5.944l-6.415,-10.482c0,0 2.121,-0.905 8.825,-5.948Z" style="fill:#fcd000;"/><path d="M83.734,-3.829l9.167,8.897l-6.413,1.278l-2.643,6.175l-7.692,-10.177c-0,0 1.301,-0.61 7.581,-6.173Z" style="fill:#ff4627;"/><path d="M79.44,-0.709c0,-0 -31.434,29.015 -80.64,36.299" style="fill:none;stroke:#fff;stroke-width:1.03px;"/></g><g><path d="M215.5,-0.764l3.611,15.092l6.264,-5.659l8.416,1.898l-4.586,-14.98c-0,-0 -3.118,1.336 -13.705,3.649Z" style="fill:#19276c;"/><path d="M193.809,2.874l1.75,15.373l6.887,-4.903l8.154,2.987l-2.863,-15.665c-0,-0 -3.126,1.23 -13.928,2.208Z" style="fill:#19276c;"/><path d="M171.815,4.164l0.281,15.469l7.322,-4.227l7.834,3.748l-1.259,-15.574c-0,0 -3.333,0.636 -14.178,0.584Z" style="fill:#19276c;"/><path d="M149.953,3.279l-1.306,15.417l7.716,-3.454l7.409,4.531l0.344,-15.621c-0,0 -3.38,0.291 -14.163,-0.873Z" style="fill:#19276c;"/><path d="M128.538,0.391l-3.14,15.337l8.026,-2.656l6.913,5.257l1.791,-15.787c-0,-0 -2.98,0.097 -13.59,-2.151Z" style="fill:#19276c;"/><path d="M108.294,-4.629l-5.883,15.434l8.212,-2.006l6.47,5.794l3.456,-16.128c-0,-0 -1.859,-0.004 -12.255,-3.094Z" style="fill:#19276c;"/><path d="M115.029,-3.317c0,-0 52.685,16.832 114.326,-1.509" style="fill:none;stroke:#19276c;stroke-width:1.74px;"/></g></g></g></g></svg>